<svg xmlns="http://www.w3.org/2000/svg" width="398" height="561" viewBox="0 0 398 561">
  <defs>
    <style>
      .cls-1 {
        fill-rule: evenodd;
      }
    </style>
  </defs>
  <path id="Color_Fill_1" data-name="Color Fill 1" class="cls-1" d="M316,186c6.217,1.233,7.8,1.423,8,9l-3,2c-38.335,23.384-84.3,35.1-133,48-15.753,4.173-49.86,5.716-55,20,15.34,0.271,72.428,6.335,80-1l8-13h6c4.258,4.085,6.419,10.239,8,17l26-4c6.392,1.961,10.758,7.936,24,6,21.865-3.2,63.01-6.015,80,3v1l-3,5c-15.185.606-39.659,2.015-50,9-16.9,11.412-19.275,29.393-42,37-11.916-9.5-6.332-32.677-17-43l-2,1c-3.39,11.12-12.441,23.689-21,30-3.635-.644-3.027-0.4-5-2h-2V281l-2,1c-2.834,8.768-24.492,46.867-31,50-7.321,3.524-7.232,1.058-12,6-30.4-2-43.582-24.862-50-51h-4c-19.325,16.671-46.814,49.2-70,58l-5-5c6.715-29.353,47.086-39.187,61-64-21.172.672-56.527,21.163-74,7-2.462-2.168-2.561-3.618-3-8,31.935-23.161,74,0,98-35l4,1,6,7C196.3,225.341,272.951,221.633,316,186ZM138,277c-2.923,23.921,21.652,46.042,43,50,3.091-18.761,16.1-33.894,25-48Zm98,4v2C236.977,281.255,236.912,282.78,236,281Zm32,1c-0.433,11.668,1.115,22.43,6,29l27-29H268Z"/>
</svg>
